<svg xmlns="http://www.w3.org/2000/svg" viewBox="0 0 289.29 30"><g id="Camada_2" data-name="Camada 2"><g id="Camada_4" data-name="Camada 4"><rect x="3.14" y="3.14" width="23.23" height="23.23" rx="4.03" transform="translate(-6.11 14.76) rotate(-45)" style="fill:#00a"/><path d="M14.57,20.69a2.09,2.09,0,0,1-3,0L8.24,17.31,6.77,18.79a.9.9,0,0,0,0,1.27l5.69,5.69a.9.9,0,0,0,1.27,0l9.07-9.07a.9.9,0,0,0,0-1.27l-1.48-1.47Z" style="fill:#fff"/><path d="M22.94,9.69l-6-6a.71.71,0,0,0-1,0L6.62,13.07a.71.71,0,0,0,0,1l6,6a.69.69,0,0,0,1,0l9.36-9.35A.71.71,0,0,0,22.94,9.69ZM12.75,12a1.61,1.61,0,1,1,1.63-2.78A1.61,1.61,0,0,1,12.75,12Zm4.85.26a3.22,3.22,0,0,1-2.27,2.38c-.39.1-1.57.27-1.77-.13a2,2,0,0,1,.18-1.69c.08-.14.18-.3.36-.3a1.71,1.71,0,0,0,1.35-1.34.35.35,0,0,1,.12-.25,2,2,0,0,1,1.91-.28C17.77,10.92,17.68,11.92,17.6,12.28Z" style="fill:#fff"/><path d="M40.24,24.8a16.84,16.84,0,0,1-3.12-.29,14.71,14.71,0,0,1-2.74-.8,10.46,10.46,0,0,1-2.07-1.08l1.86-3.48a11.33,11.33,0,0,0,2,1.1,11.24,11.24,0,0,0,2.22.7,12.09,12.09,0,0,0,2.32.23,7.77,7.77,0,0,0,2.18-.27,3.36,3.36,0,0,0,1.42-.78,1.68,1.68,0,0,0,.49-1.23,1.31,1.31,0,0,0-.54-1.08,4.52,4.52,0,0,0-1.39-.71c-.58-.2-1.21-.39-1.91-.57s-1.4-.4-2.1-.65a8.89,8.89,0,0,1-1.93-1,4.51,4.51,0,0,1-1.39-1.46A4.23,4.23,0,0,1,35,11.25a5.55,5.55,0,0,1,1.12-3.47,7.26,7.26,0,0,1,3.14-2.3A12.89,12.89,0,0,1,44,4.66a16.39,16.39,0,0,1,3.78.43,10,10,0,0,1,3,1.24L49.14,9.78a8.54,8.54,0,0,0-2.51-1.13,11,11,0,0,0-2.86-.37,7.57,7.57,0,0,0-2.27.3,3.34,3.34,0,0,0-1.44.85,1.79,1.79,0,0,0-.49,1.24,1.4,1.4,0,0,0,.52,1.13,4.36,4.36,0,0,0,1.4.72c.58.19,1.22.39,1.92.57s1.39.4,2.09.64a9.45,9.45,0,0,1,1.92.92,4.59,4.59,0,0,1,1.41,1.4,3.92,3.92,0,0,1,.54,2.13,5.63,5.63,0,0,1-1.13,3.49A7.39,7.39,0,0,1,45.06,24,12.87,12.87,0,0,1,40.24,24.8Z" style="fill:#111"/><path d="M51.37,24.47,55.32,5h4.61L56,24.47Z" style="fill:#111"/><path d="M58,24.47,70.8,5h4.55l4.86,19.47H75.63L71.79,7.22H73.6L62.92,24.47Zm5.28-4.18,1.86-3.42h10.2l.53,3.42Z" style="fill:#111"/><path d="M82.27,24.47,86.22,5h8a9,9,0,0,1,5.72,1.6,5.35,5.35,0,0,1,2,4.46,7.74,7.74,0,0,1-1.16,4.27,7.36,7.36,0,0,1-3.31,2.79,12.39,12.39,0,0,1-5.13,1H85.94L88.37,17l-1.5,7.43Zm6-6.9-1.61-2.14h5.9a5.42,5.42,0,0,0,3.51-1,3.58,3.58,0,0,0,1.26-3,2.39,2.39,0,0,0-1-2.1,4.66,4.66,0,0,0-2.71-.68H88.09l2.42-2.2Z" style="fill:#111"/><path d="M107.94,20.85h10.79L118,24.47H102.66l4-19.47h14.94l-.76,3.61H110.43Zm1.3-8h9.52l-.71,3.5h-9.52Z" style="fill:#111"/><path d="M132.6,24.63a11.31,11.31,0,0,1-4.13-.73,9.88,9.88,0,0,1-3.27-2.08A9.28,9.28,0,0,1,123,18.68a9.84,9.84,0,0,1-.78-3.95,9.87,9.87,0,0,1,.78-4,9.4,9.4,0,0,1,2.17-3.14,9.89,9.89,0,0,1,3.29-2.07,11.3,11.3,0,0,1,4.12-.74,11.48,11.48,0,0,1,4,.71,8,8,0,0,1,3.19,2.13L138.53,9a7.42,7.42,0,0,0-2.69-1.76,9.52,9.52,0,0,0-6.46,0A7.88,7.88,0,0,0,125,11.52a7.83,7.83,0,0,0-.64,3.21,7.92,7.92,0,0,0,2.4,5.77,7.92,7.92,0,0,0,2.66,1.7,9.29,9.29,0,0,0,6.46,0,7.48,7.48,0,0,0,2.69-1.78l1.32,1.31a8.24,8.24,0,0,1-3.19,2.14A11.3,11.3,0,0,1,132.6,24.63Z" style="fill:#00a"/><path d="M149.29,24.6a7.76,7.76,0,0,1-3.86-1,7.06,7.06,0,0,1-2.7-2.64,7.52,7.52,0,0,1-1-3.85,7.57,7.57,0,0,1,1-3.87,7.1,7.1,0,0,1,2.69-2.61,7.81,7.81,0,0,1,3.87-.95,7.94,7.94,0,0,1,3.91.95,6.93,6.93,0,0,1,2.68,2.61,7.57,7.57,0,0,1,1,3.87,7.52,7.52,0,0,1-1,3.85,6.92,6.92,0,0,1-2.7,2.64A7.82,7.82,0,0,1,149.29,24.6Zm0-1.75a5.58,5.58,0,0,0,2.85-.71,5.1,5.1,0,0,0,2-2,6,6,0,0,0,.72-3,6,6,0,0,0-.72-3,5.07,5.07,0,0,0-2-2,6,6,0,0,0-5.65,0,5.19,5.19,0,0,0-2,2,5.9,5.9,0,0,0-.73,3,5.94,5.94,0,0,0,.73,3,5.21,5.21,0,0,0,2,2A5.48,5.48,0,0,0,149.29,22.85Z" style="fill:#00a"/><path d="M168.52,9.72a7,7,0,0,1,3.18.69,4.86,4.86,0,0,1,2.14,2.07,7.08,7.08,0,0,1,.78,3.5v8.49h-2V16.18a4.77,4.77,0,0,0-1.18-3.49,4.41,4.41,0,0,0-3.29-1.19,5.73,5.73,0,0,0-2.75.63,4.39,4.39,0,0,0-1.81,1.81,6,6,0,0,0-.63,2.85v7.68h-2V9.86h1.92v4l-.31-.75a5.34,5.34,0,0,1,2.26-2.49A7.27,7.27,0,0,1,168.52,9.72Z" style="fill:#00a"/><path d="M184,24.6a11.62,11.62,0,0,1-3.48-.51A7.43,7.43,0,0,1,178,22.8l.91-1.56a8.57,8.57,0,0,0,2.31,1.15,8.9,8.9,0,0,0,3,.49,5.51,5.51,0,0,0,3.05-.65,2,2,0,0,0,.93-1.74,1.6,1.6,0,0,0-.52-1.27,3.6,3.6,0,0,0-1.37-.69,18.9,18.9,0,0,0-1.9-.41q-1-.16-2.07-.39a7.32,7.32,0,0,1-1.88-.65A3.73,3.73,0,0,1,179,15.9a3.43,3.43,0,0,1-.52-2,3.52,3.52,0,0,1,.68-2.14,4.42,4.42,0,0,1,2-1.49,8.38,8.38,0,0,1,3.2-.55,11.39,11.39,0,0,1,2.88.38,8.08,8.08,0,0,1,2.38,1l-.88,1.58a7,7,0,0,0-2.12-1,9.16,9.16,0,0,0-2.26-.29,5.14,5.14,0,0,0-2.95.68,2.07,2.07,0,0,0-.94,1.74,1.67,1.67,0,0,0,.52,1.31,3.77,3.77,0,0,0,1.38.74,15.52,15.52,0,0,0,1.89.43c.69.11,1.38.24,2.07.4a9.76,9.76,0,0,1,1.89.64,3.51,3.51,0,0,1,1.38,1.14,3.26,3.26,0,0,1,.52,1.93,3.49,3.49,0,0,1-.72,2.21,4.49,4.49,0,0,1-2.09,1.45A9.48,9.48,0,0,1,184,24.6Z" style="fill:#00a"/><path d="M194.84,6.64a1.42,1.42,0,0,1-1-.42,1.37,1.37,0,0,1-.43-1,1.33,1.33,0,0,1,.43-1,1.44,1.44,0,0,1,1-.4,1.48,1.48,0,0,1,1,.39,1.26,1.26,0,0,1,.42,1,1.43,1.43,0,0,1-.41,1A1.4,1.4,0,0,1,194.84,6.64Zm-1,17.83V9.86h2V24.47Z" style="fill:#00a"/><path d="M207.38,23.91a8,8,0,0,1-3.81-.9,6.89,6.89,0,0,1-2.67-2.52,7,7,0,0,1-1-3.7,7,7,0,0,1,1-3.69,6.82,6.82,0,0,1,2.67-2.49,8.11,8.11,0,0,1,3.81-.89,7.68,7.68,0,0,1,3.56.81,6.14,6.14,0,0,1,2.51,2.39,7.45,7.45,0,0,1,.94,3.87,7.45,7.45,0,0,1-.94,3.87,6.25,6.25,0,0,1-2.51,2.41A7.46,7.46,0,0,1,207.38,23.91Zm.37,6.09a12.92,12.92,0,0,1-3.9-.58,7.76,7.76,0,0,1-3-1.67l1-1.5a7.84,7.84,0,0,0,2.58,1.46,9.78,9.78,0,0,0,3.26.54,5.7,5.7,0,0,0,4.15-1.3,5.36,5.36,0,0,0,1.33-4V19.29l.28-2.5-.19-2.5V9.86h1.92V22.69q0,3.78-1.88,5.54A7.8,7.8,0,0,1,207.75,30Zm-.17-7.84a6.13,6.13,0,0,0,2.91-.68,5.15,5.15,0,0,0,2-1.9,5.24,5.24,0,0,0,.74-2.79,5.12,5.12,0,0,0-2.74-4.66,6.55,6.55,0,0,0-5.81,0,5.1,5.1,0,0,0-2,1.88,5.28,5.28,0,0,0-.72,2.78,5.32,5.32,0,0,0,.72,2.79,5.08,5.08,0,0,0,2,1.9A6.17,6.17,0,0,0,207.58,22.16Z" style="fill:#00a"/><path d="M228.34,9.72a7,7,0,0,1,3.18.69,4.91,4.91,0,0,1,2.14,2.07,7.08,7.08,0,0,1,.78,3.5v8.49h-2V16.18a4.76,4.76,0,0,0-1.17-3.49A4.42,4.42,0,0,0,228,11.5a5.73,5.73,0,0,0-2.75.63,4.33,4.33,0,0,0-1.81,1.81,6,6,0,0,0-.64,2.85v7.68h-2V9.86h1.92v4l-.31-.75a5.29,5.29,0,0,1,2.26-2.49A7.25,7.25,0,0,1,228.34,9.72Z" style="fill:#00a"/><path d="M244,24.6a7.13,7.13,0,0,1-2.89-.54,4.25,4.25,0,0,1-1.88-1.5,3.81,3.81,0,0,1-.65-2.21,4,4,0,0,1,.55-2.07,3.88,3.88,0,0,1,1.81-1.5,8.25,8.25,0,0,1,3.37-.57h5.11v1.47h-5.05a4.5,4.5,0,0,0-3,.75,2.53,2.53,0,0,0,.15,3.87,4.51,4.51,0,0,0,2.77.75,5.39,5.39,0,0,0,2.92-.77,4.4,4.4,0,0,0,1.8-2.21l.45,1.36a4.64,4.64,0,0,1-2,2.31A6.56,6.56,0,0,1,244,24.6Zm5.11-.13V21.24l-.08-.53V15.32A3.74,3.74,0,0,0,248,12.45a4.43,4.43,0,0,0-3.15-1,8.09,8.09,0,0,0-2.74.47,7,7,0,0,0-2.2,1.25L239,11.7a8.06,8.06,0,0,1,2.72-1.46,10.75,10.75,0,0,1,3.33-.52,6.44,6.44,0,0,1,4.45,1.41,5.47,5.47,0,0,1,1.56,4.27v9.07Z" style="fill:#00a"/><path d="M262.43,24.6a7.59,7.59,0,0,1-3.8-.94A6.88,6.88,0,0,1,256,21a7.67,7.67,0,0,1-1-3.88,7.66,7.66,0,0,1,1-3.89,6.73,6.73,0,0,1,2.64-2.6,7.7,7.7,0,0,1,3.8-.94,7,7,0,0,1,3.49.87,6.3,6.3,0,0,1,2.45,2.51,8.3,8.3,0,0,1,.92,4,8.36,8.36,0,0,1-.9,4,6.34,6.34,0,0,1-2.45,2.55A7,7,0,0,1,262.43,24.6Zm.14-1.75a5.62,5.62,0,0,0,2.84-.71,5.12,5.12,0,0,0,2-2,6,6,0,0,0,.72-3,6,6,0,0,0-.72-3,5.09,5.09,0,0,0-2-2,5.73,5.73,0,0,0-2.84-.71,5.58,5.58,0,0,0-2.8.71,5.09,5.09,0,0,0-2,2,5.9,5.9,0,0,0-.74,3,6,6,0,0,0,.74,3,5.12,5.12,0,0,0,2,2A5.48,5.48,0,0,0,262.57,22.85Zm5.59,1.62v-4.4l.2-2.95-.28-3V3.83h2V24.47Z" style="fill:#00a"/><path d="M281.72,24.6a7.76,7.76,0,0,1-3.86-1,7.06,7.06,0,0,1-2.7-2.64,7.52,7.52,0,0,1-1-3.85,7.57,7.57,0,0,1,1-3.87,7.1,7.1,0,0,1,2.69-2.61,7.81,7.81,0,0,1,3.87-.95,7.94,7.94,0,0,1,3.91.95,6.93,6.93,0,0,1,2.68,2.61,7.57,7.57,0,0,1,1,3.87,7.52,7.52,0,0,1-1,3.85,6.92,6.92,0,0,1-2.7,2.64A7.82,7.82,0,0,1,281.72,24.6Zm0-1.75a5.58,5.58,0,0,0,2.85-.71,5.1,5.1,0,0,0,2-2,6,6,0,0,0,.72-3,6,6,0,0,0-.72-3,5.07,5.07,0,0,0-2-2,6,6,0,0,0-5.65,0,5.19,5.19,0,0,0-2,2,5.9,5.9,0,0,0-.73,3,5.94,5.94,0,0,0,.73,3,5.21,5.21,0,0,0,2,2A5.48,5.48,0,0,0,281.72,22.85Z" style="fill:#00a"/></g></g></svg>